<?xml version="1.0" encoding="utf-8" standalone="no"?>
<!DOCTYPE svg PUBLIC "-//W3C//DTD SVG 1.1//EN"
  "http://www.w3.org/Graphics/SVG/1.1/DTD/svg11.dtd">
<svg xmlns:xlink="http://www.w3.org/1999/xlink" width="936pt" height="273.6pt" viewBox="0 0 936 273.6" xmlns="http://www.w3.org/2000/svg" version="1.1">
 <metadata>
  <rdf:RDF xmlns:dc="http://purl.org/dc/elements/1.1/" xmlns:cc="http://creativecommons.org/ns#" xmlns:rdf="http://www.w3.org/1999/02/22-rdf-syntax-ns#">
   <cc:Work>
    <dc:type rdf:resource="http://purl.org/dc/dcmitype/StillImage"/>
    <dc:format>image/svg+xml</dc:format>
    <dc:creator>
     <cc:Agent>
      <dc:title>Matplotlib v3.11.0, https://matplotlib.org/</dc:title>
     </cc:Agent>
    </dc:creator>
   </cc:Work>
  </rdf:RDF>
 </metadata>
 <defs>
  <style type="text/css">*{stroke-linejoin: round; stroke-linecap: butt}</style>
 </defs>
 <g id="figure_1">
  <g id="patch_1">
   <path d="M 0 273.6
L 936 273.6
L 936 0
L 0 0
z
" style="fill: #ffffff"/>
  </g>
  <g id="axes_1">
   <g id="patch_2">
    <path d="M 43.08774 239.598979
L 306.119247 239.598979
L 306.119247 18.118365
L 43.08774 18.118365
z
" style="fill: #ffffff"/>
   </g>
   <g id="patch_3">
    <path d="M 55.043718 239.598979
L 76.142502 239.598979
L 76.142502 28.665061
L 55.043718 28.665061
z
" clip-path="url(#p841b5dffa1)" style="fill: #1f77b4"/>
   </g>
   <g id="patch_4">
    <path d="M 142.955317 239.598979
L 164.054101 239.598979
L 164.054101 124.880532
L 142.955317 124.880532
z
" clip-path="url(#p841b5dffa1)" style="fill: #1f77b4"/>
   </g>
   <g id="patch_5">
    <path d="M 230.866917 239.598979
L 251.965701 239.598979
L 251.965701 180.389458
L 230.866917 180.389458
z
" clip-path="url(#p841b5dffa1)" style="fill: #1f77b4"/>
   </g>
   <g id="patch_6">
    <path d="M 76.142502 239.598979
L 97.241285 239.598979
L 97.241285 77.112938
L 76.142502 77.112938
z
" clip-path="url(#p841b5dffa1)" style="fill: #ff7f0e"/>
   </g>
   <g id="patch_7">
    <path d="M 164.054101 239.598979
L 185.152885 239.598979
L 185.152885 119.639316
L 164.054101 119.639316
z
" clip-path="url(#p841b5dffa1)" style="fill: #ff7f0e"/>
   </g>
   <g id="patch_8">
    <path d="M 251.965701 239.598979
L 273.064485 239.598979
L 273.064485 148.43288
L 251.965701 148.43288
z
" clip-path="url(#p841b5dffa1)" style="fill: #ff7f0e"/>
   </g>
   <g id="patch_9">
    <path d="M 97.241285 239.598979
L 118.340069 239.598979
L 118.340069 81.845058
L 97.241285 81.845058
z
" clip-path="url(#p841b5dffa1)" style="fill: #2ca02c"/>
   </g>
   <g id="patch_10">
    <path d="M 185.152885 239.598979
L 206.251669 239.598979
L 206.251669 120.731347
L 185.152885 120.731347
z
" clip-path="url(#p841b5dffa1)" style="fill: #2ca02c"/>
   </g>
   <g id="patch_11">
    <path d="M 273.064485 239.598979
L 294.163269 239.598979
L 294.163269 142.37922
L 273.064485 142.37922
z
" clip-path="url(#p841b5dffa1)" style="fill: #2ca02c"/>
   </g>
   <g id="matplotlib.axis_1">
    <g id="xtick_1">
     <g id="line2d_1">
      <path d="M 86.691894 239.598979
L 86.691894 18.118365
" clip-path="url(#p841b5dffa1)" style="fill: none; stroke: #b0b0b0; stroke-opacity: 0.2; stroke-width: 0.8; stroke-linecap: square"/>
     </g>
     <g id="line2d_2">
      <defs>
       <path id="m84dd51ba70" d="M 0 0
L 0 3.5
" style="stroke: #000000; stroke-width: 0.8"/>
      </defs>
      <g>
       <use xlink:href="#m84dd51ba70" x="86.691894" y="239.598979" style="stroke: #000000; stroke-width: 0.8"/>
      </g>
     </g>
     <g id="text_1">
      <text style="font-size: 10px; font-family: 'DejaVu Sans', 'Bitstream Vera Sans', 'Computer Modern Sans Serif', 'Lucida Grande', 'Verdana', 'Geneva', 'Lucid', 'Arial', 'Helvetica', 'Avant Garde', sans-serif; text-anchor: middle" x="86.691894" y="254.196635" transform="rotate(-0 86.691894 254.196635)">C11</text>
     </g>
    </g>
    <g id="xtick_2">
     <g id="line2d_3">
      <path d="M 174.603493 239.598979
L 174.603493 18.118365
" clip-path="url(#p841b5dffa1)" style="fill: none; stroke: #b0b0b0; stroke-opacity: 0.2; stroke-width: 0.8; stroke-linecap: square"/>
     </g>
     <g id="line2d_4">
      <g>
       <use xlink:href="#m84dd51ba70" x="174.603493" y="239.598979" style="stroke: #000000; stroke-width: 0.8"/>
      </g>
     </g>
     <g id="text_2">
      <text style="font-size: 10px; font-family: 'DejaVu Sans', 'Bitstream Vera Sans', 'Computer Modern Sans Serif', 'Lucida Grande', 'Verdana', 'Geneva', 'Lucid', 'Arial', 'Helvetica', 'Avant Garde', sans-serif; text-anchor: middle" x="174.603493" y="254.196635" transform="rotate(-0 174.603493 254.196635)">C12</text>
     </g>
    </g>
    <g id="xtick_3">
     <g id="line2d_5">
      <path d="M 262.515093 239.598979
L 262.515093 18.118365
" clip-path="url(#p841b5dffa1)" style="fill: none; stroke: #b0b0b0; stroke-opacity: 0.2; stroke-width: 0.8; stroke-linecap: square"/>
     </g>
     <g id="line2d_6">
      <g>
       <use xlink:href="#m84dd51ba70" x="262.515093" y="239.598979" style="stroke: #000000; stroke-width: 0.8"/>
      </g>
     </g>
     <g id="text_3">
      <text style="font-size: 10px; font-family: 'DejaVu Sans', 'Bitstream Vera Sans', 'Computer Modern Sans Serif', 'Lucida Grande', 'Verdana', 'Geneva', 'Lucid', 'Arial', 'Helvetica', 'Avant Garde', sans-serif; text-anchor: middle" x="262.515093" y="254.196635" transform="rotate(-0 262.515093 254.196635)">C44</text>
     </g>
    </g>
   </g>
   <g id="matplotlib.axis_2">
    <g id="ytick_1">
     <g id="line2d_7">
      <path d="M 43.08774 239.598979
L 306.119247 239.598979
" clip-path="url(#p841b5dffa1)" style="fill: none; stroke: #b0b0b0; stroke-opacity: 0.2; stroke-width: 0.8; stroke-linecap: square"/>
     </g>
     <g id="line2d_8">
      <defs>
       <path id="md74424f9e9" d="M 0 0
L -3.5 0
" style="stroke: #000000; stroke-width: 0.8"/>
      </defs>
      <g>
       <use xlink:href="#md74424f9e9" x="43.08774" y="239.598979" style="stroke: #000000; stroke-width: 0.8"/>
      </g>
     </g>
     <g id="text_4">
      <text style="font-size: 10px; font-family: 'DejaVu Sans', 'Bitstream Vera Sans', 'Computer Modern Sans Serif', 'Lucida Grande', 'Verdana', 'Geneva', 'Lucid', 'Arial', 'Helvetica', 'Avant Garde', sans-serif; text-anchor: end" x="36.08774" y="243.397807" transform="rotate(-0 36.08774 243.397807)">0</text>
     </g>
    </g>
    <g id="ytick_2">
     <g id="line2d_9">
      <path d="M 43.08774 202.593028
L 306.119247 202.593028
" clip-path="url(#p841b5dffa1)" style="fill: none; stroke: #b0b0b0; stroke-opacity: 0.2; stroke-width: 0.8; stroke-linecap: square"/>
     </g>
     <g id="line2d_10">
      <g>
       <use xlink:href="#md74424f9e9" x="43.08774" y="202.593028" style="stroke: #000000; stroke-width: 0.8"/>
      </g>
     </g>
     <g id="text_5">
      <text style="font-size: 10px; font-family: 'DejaVu Sans', 'Bitstream Vera Sans', 'Computer Modern Sans Serif', 'Lucida Grande', 'Verdana', 'Geneva', 'Lucid', 'Arial', 'Helvetica', 'Avant Garde', sans-serif; text-anchor: end" x="36.08774" y="206.391856" transform="rotate(-0 36.08774 206.391856)">20</text>
     </g>
    </g>
    <g id="ytick_3">
     <g id="line2d_11">
      <path d="M 43.08774 165.587078
L 306.119247 165.587078
" clip-path="url(#p841b5dffa1)" style="fill: none; stroke: #b0b0b0; stroke-opacity: 0.2; stroke-width: 0.8; stroke-linecap: square"/>
     </g>
     <g id="line2d_12">
      <g>
       <use xlink:href="#md74424f9e9" x="43.08774" y="165.587078" style="stroke: #000000; stroke-width: 0.8"/>
      </g>
     </g>
     <g id="text_6">
      <text style="font-size: 10px; font-family: 'DejaVu Sans', 'Bitstream Vera Sans', 'Computer Modern Sans Serif', 'Lucida Grande', 'Verdana', 'Geneva', 'Lucid', 'Arial', 'Helvetica', 'Avant Garde', sans-serif; text-anchor: end" x="36.08774" y="169.385906" transform="rotate(-0 36.08774 169.385906)">40</text>
     </g>
    </g>
    <g id="ytick_4">
     <g id="line2d_13">
      <path d="M 43.08774 128.581127
L 306.119247 128.581127
" clip-path="url(#p841b5dffa1)" style="fill: none; stroke: #b0b0b0; stroke-opacity: 0.2; stroke-width: 0.8; stroke-linecap: square"/>
     </g>
     <g id="line2d_14">
      <g>
       <use xlink:href="#md74424f9e9" x="43.08774" y="128.581127" style="stroke: #000000; stroke-width: 0.8"/>
      </g>
     </g>
     <g id="text_7">
      <text style="font-size: 10px; font-family: 'DejaVu Sans', 'Bitstream Vera Sans', 'Computer Modern Sans Serif', 'Lucida Grande', 'Verdana', 'Geneva', 'Lucid', 'Arial', 'Helvetica', 'Avant Garde', sans-serif; text-anchor: end" x="36.08774" y="132.379955" transform="rotate(-0 36.08774 132.379955)">60</text>
     </g>
    </g>
    <g id="ytick_5">
     <g id="line2d_15">
      <path d="M 43.08774 91.575177
L 306.119247 91.575177
" clip-path="url(#p841b5dffa1)" style="fill: none; stroke: #b0b0b0; stroke-opacity: 0.2; stroke-width: 0.8; stroke-linecap: square"/>
     </g>
     <g id="line2d_16">
      <g>
       <use xlink:href="#md74424f9e9" x="43.08774" y="91.575177" style="stroke: #000000; stroke-width: 0.8"/>
      </g>
     </g>
     <g id="text_8">
      <text style="font-size: 10px; font-family: 'DejaVu Sans', 'Bitstream Vera Sans', 'Computer Modern Sans Serif', 'Lucida Grande', 'Verdana', 'Geneva', 'Lucid', 'Arial', 'Helvetica', 'Avant Garde', sans-serif; text-anchor: end" x="36.08774" y="95.374005" transform="rotate(-0 36.08774 95.374005)">80</text>
     </g>
    </g>
    <g id="ytick_6">
     <g id="line2d_17">
      <path d="M 43.08774 54.569226
L 306.119247 54.569226
" clip-path="url(#p841b5dffa1)" style="fill: none; stroke: #b0b0b0; stroke-opacity: 0.2; stroke-width: 0.8; stroke-linecap: square"/>
     </g>
     <g id="line2d_18">
      <g>
       <use xlink:href="#md74424f9e9" x="43.08774" y="54.569226" style="stroke: #000000; stroke-width: 0.8"/>
      </g>
     </g>
     <g id="text_9">
      <text style="font-size: 10px; font-family: 'DejaVu Sans', 'Bitstream Vera Sans', 'Computer Modern Sans Serif', 'Lucida Grande', 'Verdana', 'Geneva', 'Lucid', 'Arial', 'Helvetica', 'Avant Garde', sans-serif; text-anchor: end" x="36.08774" y="58.368054" transform="rotate(-0 36.08774 58.368054)">100</text>
     </g>
    </g>
    <g id="text_10">
     <text style="font-size: 10px; font-family: 'DejaVu Sans', 'Bitstream Vera Sans', 'Computer Modern Sans Serif', 'Lucida Grande', 'Verdana', 'Geneva', 'Lucid', 'Arial', 'Helvetica', 'Avant Garde', sans-serif; text-anchor: middle" x="10.597896" y="128.858672" transform="rotate(-90 10.597896 128.858672)">GPa</text>
    </g>
   </g>
   <g id="patch_12">
    <path d="M 43.08774 239.598979
L 43.08774 18.118365
" style="fill: none; stroke: #000000; stroke-width: 0.8; stroke-linejoin: miter; stroke-linecap: square"/>
   </g>
   <g id="patch_13">
    <path d="M 306.119247 239.598979
L 306.119247 18.118365
" style="fill: none; stroke: #000000; stroke-width: 0.8; stroke-linejoin: miter; stroke-linecap: square"/>
   </g>
   <g id="patch_14">
    <path d="M 43.08774 239.598979
L 306.119247 239.598979
" style="fill: none; stroke: #000000; stroke-width: 0.8; stroke-linejoin: miter; stroke-linecap: square"/>
   </g>
   <g id="patch_15">
    <path d="M 43.08774 18.118365
L 306.119247 18.118365
" style="fill: none; stroke: #000000; stroke-width: 0.8; stroke-linejoin: miter; stroke-linecap: square"/>
   </g>
   <g id="text_11">
    <text style="font-size: 12px; font-family: 'DejaVu Sans', 'Bitstream Vera Sans', 'Computer Modern Sans Serif', 'Lucida Grande', 'Verdana', 'Geneva', 'Lucid', 'Arial', 'Helvetica', 'Avant Garde', sans-serif; text-anchor: middle" x="174.603493" y="12.118365" transform="rotate(-0 174.603493 12.118365)">Bulk: not adequately matched</text>
   </g>
   <g id="legend_1">
    <g id="patch_16">
     <path d="M 233.261278 55.220006
L 301.219247 55.220006
Q 302.619247 55.220006 302.619247 53.820006
L 302.619247 23.018365
Q 302.619247 21.618365 301.219247 21.618365
L 233.261278 21.618365
Q 231.861278 21.618365 231.861278 23.018365
L 231.861278 53.820006
Q 231.861278 55.220006 233.261278 55.220006
z
" style="fill: #ffffff; opacity: 0.8; stroke: #cccccc; stroke-linejoin: miter"/>
    </g>
    <g id="patch_17">
     <path d="M 234.661278 29.737271
L 248.661278 29.737271
L 248.661278 24.837271
L 234.661278 24.837271
z
" style="fill: #1f77b4"/>
    </g>
    <g id="text_12">
     <text style="font-size: 7px; font-family: 'DejaVu Sans', 'Bitstream Vera Sans', 'Computer Modern Sans Serif', 'Lucida Grande', 'Verdana', 'Geneva', 'Lucid', 'Arial', 'Helvetica', 'Avant Garde', sans-serif; text-anchor: start" x="254.261278" y="29.737271" transform="rotate(-0 254.261278 29.737271)">0 K source</text>
    </g>
    <g id="patch_18">
     <path d="M 234.661278 40.237818
L 248.661278 40.237818
L 248.661278 35.337818
L 234.661278 35.337818
z
" style="fill: #ff7f0e"/>
    </g>
    <g id="text_13">
     <text style="font-size: 7px; font-family: 'DejaVu Sans', 'Bitstream Vera Sans', 'Computer Modern Sans Serif', 'Lucida Grande', 'Verdana', 'Geneva', 'Lucid', 'Arial', 'Helvetica', 'Avant Garde', sans-serif; text-anchor: start" x="254.261278" y="40.237818" transform="rotate(-0 254.261278 40.237818)">previous</text>
    </g>
    <g id="patch_19">
     <path d="M 234.661278 50.738365
L 248.661278 50.738365
L 248.661278 45.838365
L 234.661278 45.838365
z
" style="fill: #2ca02c"/>
    </g>
    <g id="text_14">
     <text style="font-size: 7px; font-family: 'DejaVu Sans', 'Bitstream Vera Sans', 'Computer Modern Sans Serif', 'Lucida Grande', 'Verdana', 'Geneva', 'Lucid', 'Arial', 'Helvetica', 'Avant Garde', sans-serif; text-anchor: start" x="254.261278" y="50.738365" transform="rotate(-0 254.261278 50.738365)">v10 research</text>
    </g>
   </g>
  </g>
  <g id="axes_2">
   <g id="patch_20">
    <path d="M 363.789715 239.598979
L 626.821222 239.598979
L 626.821222 18.118365
L 363.789715 18.118365
z
" style="fill: #ffffff"/>
   </g>
   <g id="patch_21">
    <path d="M 375.745693 239.598979
L 396.844477 239.598979
L 396.844477 30.169529
L 375.745693 30.169529
z
" clip-path="url(#pc8383e06cf)" style="fill: #1f77b4"/>
   </g>
   <g id="patch_22">
    <path d="M 463.657293 239.598979
L 484.756077 239.598979
L 484.756077 56.375718
L 463.657293 56.375718
z
" clip-path="url(#pc8383e06cf)" style="fill: #1f77b4"/>
   </g>
   <g id="patch_23">
    <path d="M 551.568893 239.598979
L 572.667677 239.598979
L 572.667677 213.392789
L 551.568893 213.392789
z
" clip-path="url(#pc8383e06cf)" style="fill: #1f77b4"/>
   </g>
   <g id="patch_24">
    <path d="M 396.844477 239.598979
L 417.943261 239.598979
L 417.943261 28.665061
L 396.844477 28.665061
z
" clip-path="url(#pc8383e06cf)" style="fill: #ff7f0e"/>
   </g>
   <g id="patch_25">
    <path d="M 484.756077 239.598979
L 505.854861 239.598979
L 505.854861 85.207558
L 484.756077 85.207558
z
" clip-path="url(#pc8383e06cf)" style="fill: #ff7f0e"/>
   </g>
   <g id="patch_26">
    <path d="M 572.667677 239.598979
L 593.766461 239.598979
L 593.766461 183.056482
L 572.667677 183.056482
z
" clip-path="url(#pc8383e06cf)" style="fill: #ff7f0e"/>
   </g>
   <g id="patch_27">
    <path d="M 417.943261 239.598979
L 439.042045 239.598979
L 439.042045 36.476186
L 417.943261 36.476186
z
" clip-path="url(#pc8383e06cf)" style="fill: #2ca02c"/>
   </g>
   <g id="patch_28">
    <path d="M 505.854861 239.598979
L 526.953645 239.598979
L 526.953645 54.534915
L 505.854861 54.534915
z
" clip-path="url(#pc8383e06cf)" style="fill: #2ca02c"/>
   </g>
   <g id="patch_29">
    <path d="M 593.766461 239.598979
L 614.865245 239.598979
L 614.865245 221.540249
L 593.766461 221.540249
z
" clip-path="url(#pc8383e06cf)" style="fill: #2ca02c"/>
   </g>
   <g id="matplotlib.axis_3">
    <g id="xtick_4">
     <g id="line2d_19">
      <path d="M 407.393869 239.598979
L 407.393869 18.118365
" clip-path="url(#pc8383e06cf)" style="fill: none; stroke: #b0b0b0; stroke-opacity: 0.2; stroke-width: 0.8; stroke-linecap: square"/>
     </g>
     <g id="line2d_20">
      <g>
       <use xlink:href="#m84dd51ba70" x="407.393869" y="239.598979" style="stroke: #000000; stroke-width: 0.8"/>
      </g>
     </g>
     <g id="text_15">
      <text style="font-size: 10px; font-family: 'DejaVu Sans', 'Bitstream Vera Sans', 'Computer Modern Sans Serif', 'Lucida Grande', 'Verdana', 'Geneva', 'Lucid', 'Arial', 'Helvetica', 'Avant Garde', sans-serif; text-anchor: middle" x="407.393869" y="254.197416" transform="rotate(-0 407.393869 254.197416)">forward</text>
     </g>
    </g>
    <g id="xtick_5">
     <g id="line2d_21">
      <path d="M 495.305469 239.598979
L 495.305469 18.118365
" clip-path="url(#pc8383e06cf)" style="fill: none; stroke: #b0b0b0; stroke-opacity: 0.2; stroke-width: 0.8; stroke-linecap: square"/>
     </g>
     <g id="line2d_22">
      <g>
       <use xlink:href="#m84dd51ba70" x="495.305469" y="239.598979" style="stroke: #000000; stroke-width: 0.8"/>
      </g>
     </g>
     <g id="text_16">
      <text style="font-size: 10px; font-family: 'DejaVu Sans', 'Bitstream Vera Sans', 'Computer Modern Sans Serif', 'Lucida Grande', 'Verdana', 'Geneva', 'Lucid', 'Arial', 'Helvetica', 'Avant Garde', sans-serif; text-anchor: middle" x="495.305469" y="254.197416" transform="rotate(-0 495.305469 254.197416)">fault</text>
     </g>
    </g>
    <g id="xtick_6">
     <g id="line2d_23">
      <path d="M 583.217069 239.598979
L 583.217069 18.118365
" clip-path="url(#pc8383e06cf)" style="fill: none; stroke: #b0b0b0; stroke-opacity: 0.2; stroke-width: 0.8; stroke-linecap: square"/>
     </g>
     <g id="line2d_24">
      <g>
       <use xlink:href="#m84dd51ba70" x="583.217069" y="239.598979" style="stroke: #000000; stroke-width: 0.8"/>
      </g>
     </g>
     <g id="text_17">
      <text style="font-size: 10px; font-family: 'DejaVu Sans', 'Bitstream Vera Sans', 'Computer Modern Sans Serif', 'Lucida Grande', 'Verdana', 'Geneva', 'Lucid', 'Arial', 'Helvetica', 'Avant Garde', sans-serif; text-anchor: middle" x="583.217069" y="254.196635" transform="rotate(-0 583.217069 254.196635)">reverse</text>
     </g>
    </g>
   </g>
   <g id="matplotlib.axis_4">
    <g id="ytick_7">
     <g id="line2d_25">
      <path d="M 363.789715 239.598979
L 626.821222 239.598979
" clip-path="url(#pc8383e06cf)" style="fill: none; stroke: #b0b0b0; stroke-opacity: 0.2; stroke-width: 0.8; stroke-linecap: square"/>
     </g>
     <g id="line2d_26">
      <g>
       <use xlink:href="#md74424f9e9" x="363.789715" y="239.598979" style="stroke: #000000; stroke-width: 0.8"/>
      </g>
     </g>
     <g id="text_18">
      <text style="font-size: 10px; font-family: 'DejaVu Sans', 'Bitstream Vera Sans', 'Computer Modern Sans Serif', 'Lucida Grande', 'Verdana', 'Geneva', 'Lucid', 'Arial', 'Helvetica', 'Avant Garde', sans-serif; text-anchor: end" x="356.789715" y="243.397807" transform="rotate(-0 356.789715 243.397807)">0.000</text>
     </g>
    </g>
    <g id="ytick_8">
     <g id="line2d_27">
      <path d="M 363.789715 209.15907
L 626.821222 209.15907
" clip-path="url(#pc8383e06cf)" style="fill: none; stroke: #b0b0b0; stroke-opacity: 0.2; stroke-width: 0.8; stroke-linecap: square"/>
     </g>
     <g id="line2d_28">
      <g>
       <use xlink:href="#md74424f9e9" x="363.789715" y="209.15907" style="stroke: #000000; stroke-width: 0.8"/>
      </g>
     </g>
     <g id="text_19">
      <text style="font-size: 10px; font-family: 'DejaVu Sans', 'Bitstream Vera Sans', 'Computer Modern Sans Serif', 'Lucida Grande', 'Verdana', 'Geneva', 'Lucid', 'Arial', 'Helvetica', 'Avant Garde', sans-serif; text-anchor: end" x="356.789715" y="212.957898" transform="rotate(-0 356.789715 212.957898)">0.025</text>
     </g>
    </g>
    <g id="ytick_9">
     <g id="line2d_29">
      <path d="M 363.789715 178.719162
L 626.821222 178.719162
" clip-path="url(#pc8383e06cf)" style="fill: none; stroke: #b0b0b0; stroke-opacity: 0.2; stroke-width: 0.8; stroke-linecap: square"/>
     </g>
     <g id="line2d_30">
      <g>
       <use xlink:href="#md74424f9e9" x="363.789715" y="178.719162" style="stroke: #000000; stroke-width: 0.8"/>
      </g>
     </g>
     <g id="text_20">
      <text style="font-size: 10px; font-family: 'DejaVu Sans', 'Bitstream Vera Sans', 'Computer Modern Sans Serif', 'Lucida Grande', 'Verdana', 'Geneva', 'Lucid', 'Arial', 'Helvetica', 'Avant Garde', sans-serif; text-anchor: end" x="356.789715" y="182.51799" transform="rotate(-0 356.789715 182.51799)">0.050</text>
     </g>
    </g>
    <g id="ytick_10">
     <g id="line2d_31">
      <path d="M 363.789715 148.279253
L 626.821222 148.279253
" clip-path="url(#pc8383e06cf)" style="fill: none; stroke: #b0b0b0; stroke-opacity: 0.2; stroke-width: 0.8; stroke-linecap: square"/>
     </g>
     <g id="line2d_32">
      <g>
       <use xlink:href="#md74424f9e9" x="363.789715" y="148.279253" style="stroke: #000000; stroke-width: 0.8"/>
      </g>
     </g>
     <g id="text_21">
      <text style="font-size: 10px; font-family: 'DejaVu Sans', 'Bitstream Vera Sans', 'Computer Modern Sans Serif', 'Lucida Grande', 'Verdana', 'Geneva', 'Lucid', 'Arial', 'Helvetica', 'Avant Garde', sans-serif; text-anchor: end" x="356.789715" y="152.078081" transform="rotate(-0 356.789715 152.078081)">0.075</text>
     </g>
    </g>
    <g id="ytick_11">
     <g id="line2d_33">
      <path d="M 363.789715 117.839345
L 626.821222 117.839345
" clip-path="url(#pc8383e06cf)" style="fill: none; stroke: #b0b0b0; stroke-opacity: 0.2; stroke-width: 0.8; stroke-linecap: square"/>
     </g>
     <g id="line2d_34">
      <g>
       <use xlink:href="#md74424f9e9" x="363.789715" y="117.839345" style="stroke: #000000; stroke-width: 0.8"/>
      </g>
     </g>
     <g id="text_22">
      <text style="font-size: 10px; font-family: 'DejaVu Sans', 'Bitstream Vera Sans', 'Computer Modern Sans Serif', 'Lucida Grande', 'Verdana', 'Geneva', 'Lucid', 'Arial', 'Helvetica', 'Avant Garde', sans-serif; text-anchor: end" x="356.789715" y="121.638173" transform="rotate(-0 356.789715 121.638173)">0.100</text>
     </g>
    </g>
    <g id="ytick_12">
     <g id="line2d_35">
      <path d="M 363.789715 87.399436
L 626.821222 87.399436
" clip-path="url(#pc8383e06cf)" style="fill: none; stroke: #b0b0b0; stroke-opacity: 0.2; stroke-width: 0.8; stroke-linecap: square"/>
     </g>
     <g id="line2d_36">
      <g>
       <use xlink:href="#md74424f9e9" x="363.789715" y="87.399436" style="stroke: #000000; stroke-width: 0.8"/>
      </g>
     </g>
     <g id="text_23">
      <text style="font-size: 10px; font-family: 'DejaVu Sans', 'Bitstream Vera Sans', 'Computer Modern Sans Serif', 'Lucida Grande', 'Verdana', 'Geneva', 'Lucid', 'Arial', 'Helvetica', 'Avant Garde', sans-serif; text-anchor: end" x="356.789715" y="91.198265" transform="rotate(-0 356.789715 91.198265)">0.125</text>
     </g>
    </g>
    <g id="ytick_13">
     <g id="line2d_37">
      <path d="M 363.789715 56.959528
L 626.821222 56.959528
" clip-path="url(#pc8383e06cf)" style="fill: none; stroke: #b0b0b0; stroke-opacity: 0.2; stroke-width: 0.8; stroke-linecap: square"/>
     </g>
     <g id="line2d_38">
      <g>
       <use xlink:href="#md74424f9e9" x="363.789715" y="56.959528" style="stroke: #000000; stroke-width: 0.8"/>
      </g>
     </g>
     <g id="text_24">
      <text style="font-size: 10px; font-family: 'DejaVu Sans', 'Bitstream Vera Sans', 'Computer Modern Sans Serif', 'Lucida Grande', 'Verdana', 'Geneva', 'Lucid', 'Arial', 'Helvetica', 'Avant Garde', sans-serif; text-anchor: end" x="356.789715" y="60.758356" transform="rotate(-0 356.789715 60.758356)">0.150</text>
     </g>
    </g>
    <g id="ytick_14">
     <g id="line2d_39">
      <path d="M 363.789715 26.519619
L 626.821222 26.519619
" clip-path="url(#pc8383e06cf)" style="fill: none; stroke: #b0b0b0; stroke-opacity: 0.2; stroke-width: 0.8; stroke-linecap: square"/>
     </g>
     <g id="line2d_40">
      <g>
       <use xlink:href="#md74424f9e9" x="363.789715" y="26.519619" style="stroke: #000000; stroke-width: 0.8"/>
      </g>
     </g>
     <g id="text_25">
      <text style="font-size: 10px; font-family: 'DejaVu Sans', 'Bitstream Vera Sans', 'Computer Modern Sans Serif', 'Lucida Grande', 'Verdana', 'Geneva', 'Lucid', 'Arial', 'Helvetica', 'Avant Garde', sans-serif; text-anchor: end" x="356.789715" y="30.318448" transform="rotate(-0 356.789715 30.318448)">0.175</text>
     </g>
    </g>
    <g id="text_26">
     <!-- J/m$^2$ -->
     <g transform="translate(321.759247 139.308672) rotate(-90)">
      <text>
       <tspan x="0" y="-0.674688" style="font-size: 10px; font-family: 'DejaVu Sans'">J</tspan>
       <tspan x="2.949219" y="-0.674688" style="font-size: 10px; font-family: 'DejaVu Sans'">/</tspan>
       <tspan x="6.318359" y="-0.674688" style="font-size: 10px; font-family: 'DejaVu Sans'">m</tspan>
       <tspan x="16.155273" y="-4.804688" style="font-size: 7px; font-family: 'DejaVu Sans'">2</tspan>
      </text>
     </g>
    </g>
   </g>
   <g id="patch_30">
    <path d="M 363.789715 239.598979
L 363.789715 18.118365
" style="fill: none; stroke: #000000; stroke-width: 0.8; stroke-linejoin: miter; stroke-linecap: square"/>
   </g>
   <g id="patch_31">
    <path d="M 626.821222 239.598979
L 626.821222 18.118365
" style="fill: none; stroke: #000000; stroke-width: 0.8; stroke-linejoin: miter; stroke-linecap: square"/>
   </g>
   <g id="patch_32">
    <path d="M 363.789715 239.598979
L 626.821222 239.598979
" style="fill: none; stroke: #000000; stroke-width: 0.8; stroke-linejoin: miter; stroke-linecap: square"/>
   </g>
   <g id="patch_33">
    <path d="M 363.789715 18.118365
L 626.821222 18.118365
" style="fill: none; stroke: #000000; stroke-width: 0.8; stroke-linejoin: miter; stroke-linecap: square"/>
   </g>
   <g id="text_27">
    <text style="font-size: 12px; font-family: 'DejaVu Sans', 'Bitstream Vera Sans', 'Computer Modern Sans Serif', 'Lucida Grande', 'Verdana', 'Geneva', 'Lucid', 'Arial', 'Helvetica', 'Avant Garde', sans-serif; text-anchor: middle" x="495.305469" y="12.118365" transform="rotate(-0 495.305469 12.118365)">Connected stationary states</text>
   </g>
   <g id="legend_2">
    <g id="patch_34">
     <path d="M 553.963253 55.220006
L 621.921222 55.220006
Q 623.321222 55.220006 623.321222 53.820006
L 623.321222 23.018365
Q 623.321222 21.618365 621.921222 21.618365
L 553.963253 21.618365
Q 552.563253 21.618365 552.563253 23.018365
L 552.563253 53.820006
Q 552.563253 55.220006 553.963253 55.220006
z
" style="fill: #ffffff; opacity: 0.8; stroke: #cccccc; stroke-linejoin: miter"/>
    </g>
    <g id="patch_35">
     <path d="M 555.363253 29.737271
L 569.363253 29.737271
L 569.363253 24.837271
L 555.363253 24.837271
z
" style="fill: #1f77b4"/>
    </g>
    <g id="text_28">
     <text style="font-size: 7px; font-family: 'DejaVu Sans', 'Bitstream Vera Sans', 'Computer Modern Sans Serif', 'Lucida Grande', 'Verdana', 'Geneva', 'Lucid', 'Arial', 'Helvetica', 'Avant Garde', sans-serif; text-anchor: start" x="574.963253" y="29.737271" transform="rotate(-0 574.963253 29.737271)">source</text>
    </g>
    <g id="patch_36">
     <path d="M 555.363253 40.237818
L 569.363253 40.237818
L 569.363253 35.337818
L 555.363253 35.337818
z
" style="fill: #ff7f0e"/>
    </g>
    <g id="text_29">
     <text style="font-size: 7px; font-family: 'DejaVu Sans', 'Bitstream Vera Sans', 'Computer Modern Sans Serif', 'Lucida Grande', 'Verdana', 'Geneva', 'Lucid', 'Arial', 'Helvetica', 'Avant Garde', sans-serif; text-anchor: start" x="574.963253" y="40.237818" transform="rotate(-0 574.963253 40.237818)">previous</text>
    </g>
    <g id="patch_37">
     <path d="M 555.363253 50.738365
L 569.363253 50.738365
L 569.363253 45.838365
L 555.363253 45.838365
z
" style="fill: #2ca02c"/>
    </g>
    <g id="text_30">
     <text style="font-size: 7px; font-family: 'DejaVu Sans', 'Bitstream Vera Sans', 'Computer Modern Sans Serif', 'Lucida Grande', 'Verdana', 'Geneva', 'Lucid', 'Arial', 'Helvetica', 'Avant Garde', sans-serif; text-anchor: start" x="574.963253" y="50.738365" transform="rotate(-0 574.963253 50.738365)">v10 research</text>
    </g>
   </g>
  </g>
  <g id="axes_3">
   <g id="patch_38">
    <path d="M 666.787003 239.598979
L 929.81851 239.598979
L 929.81851 18.118365
L 666.787003 18.118365
z
" style="fill: #ffffff"/>
   </g>
   <g id="matplotlib.axis_5">
    <g id="xtick_7">
     <g id="line2d_41">
      <path d="M 666.787003 239.598979
L 666.787003 18.118365
" clip-path="url(#p584ba20cab)" style="fill: none; stroke: #b0b0b0; stroke-opacity: 0.2; stroke-width: 0.8; stroke-linecap: square"/>
     </g>
     <g id="line2d_42">
      <g>
       <use xlink:href="#m84dd51ba70" x="666.787003" y="239.598979" style="stroke: #000000; stroke-width: 0.8"/>
      </g>
     </g>
     <g id="text_31">
      <text style="font-size: 10px; font-family: 'DejaVu Sans', 'Bitstream Vera Sans', 'Computer Modern Sans Serif', 'Lucida Grande', 'Verdana', 'Geneva', 'Lucid', 'Arial', 'Helvetica', 'Avant Garde', sans-serif; text-anchor: middle" x="666.787003" y="254.196635" transform="rotate(-0 666.787003 254.196635)">1</text>
     </g>
    </g>
    <g id="xtick_8">
     <g id="line2d_43">
      <path d="M 719.393305 239.598979
L 719.393305 18.118365
" clip-path="url(#p584ba20cab)" style="fill: none; stroke: #b0b0b0; stroke-opacity: 0.2; stroke-width: 0.8; stroke-linecap: square"/>
     </g>
     <g id="line2d_44">
      <g>
       <use xlink:href="#m84dd51ba70" x="719.393305" y="239.598979" style="stroke: #000000; stroke-width: 0.8"/>
      </g>
     </g>
     <g id="text_32">
      <text style="font-size: 10px; font-family: 'DejaVu Sans', 'Bitstream Vera Sans', 'Computer Modern Sans Serif', 'Lucida Grande', 'Verdana', 'Geneva', 'Lucid', 'Arial', 'Helvetica', 'Avant Garde', sans-serif; text-anchor: middle" x="719.393305" y="254.196635" transform="rotate(-0 719.393305 254.196635)">2</text>
     </g>
    </g>
    <g id="xtick_9">
     <g id="line2d_45">
      <path d="M 771.999606 239.598979
L 771.999606 18.118365
" clip-path="url(#p584ba20cab)" style="fill: none; stroke: #b0b0b0; stroke-opacity: 0.2; stroke-width: 0.8; stroke-linecap: square"/>
     </g>
     <g id="line2d_46">
      <g>
       <use xlink:href="#m84dd51ba70" x="771.999606" y="239.598979" style="stroke: #000000; stroke-width: 0.8"/>
      </g>
     </g>
     <g id="text_33">
      <text style="font-size: 10px; font-family: 'DejaVu Sans', 'Bitstream Vera Sans', 'Computer Modern Sans Serif', 'Lucida Grande', 'Verdana', 'Geneva', 'Lucid', 'Arial', 'Helvetica', 'Avant Garde', sans-serif; text-anchor: middle" x="771.999606" y="254.196635" transform="rotate(-0 771.999606 254.196635)">3</text>
     </g>
    </g>
    <g id="xtick_10">
     <g id="line2d_47">
      <path d="M 824.605907 239.598979
L 824.605907 18.118365
" clip-path="url(#p584ba20cab)" style="fill: none; stroke: #b0b0b0; stroke-opacity: 0.2; stroke-width: 0.8; stroke-linecap: square"/>
     </g>
     <g id="line2d_48">
      <g>
       <use xlink:href="#m84dd51ba70" x="824.605907" y="239.598979" style="stroke: #000000; stroke-width: 0.8"/>
      </g>
     </g>
     <g id="text_34">
      <text style="font-size: 10px; font-family: 'DejaVu Sans', 'Bitstream Vera Sans', 'Computer Modern Sans Serif', 'Lucida Grande', 'Verdana', 'Geneva', 'Lucid', 'Arial', 'Helvetica', 'Avant Garde', sans-serif; text-anchor: middle" x="824.605907" y="254.196635" transform="rotate(-0 824.605907 254.196635)">4</text>
     </g>
    </g>
    <g id="xtick_11">
     <g id="line2d_49">
      <path d="M 877.212209 239.598979
L 877.212209 18.118365
" clip-path="url(#p584ba20cab)" style="fill: none; stroke: #b0b0b0; stroke-opacity: 0.2; stroke-width: 0.8; stroke-linecap: square"/>
     </g>
     <g id="line2d_50">
      <g>
       <use xlink:href="#m84dd51ba70" x="877.212209" y="239.598979" style="stroke: #000000; stroke-width: 0.8"/>
      </g>
     </g>
     <g id="text_35">
      <text style="font-size: 10px; font-family: 'DejaVu Sans', 'Bitstream Vera Sans', 'Computer Modern Sans Serif', 'Lucida Grande', 'Verdana', 'Geneva', 'Lucid', 'Arial', 'Helvetica', 'Avant Garde', sans-serif; text-anchor: middle" x="877.212209" y="254.196635" transform="rotate(-0 877.212209 254.196635)">5</text>
     </g>
    </g>
    <g id="xtick_12">
     <g id="line2d_51">
      <path d="M 929.81851 239.598979
L 929.81851 18.118365
" clip-path="url(#p584ba20cab)" style="fill: none; stroke: #b0b0b0; stroke-opacity: 0.2; stroke-width: 0.8; stroke-linecap: square"/>
     </g>
     <g id="line2d_52">
      <g>
       <use xlink:href="#m84dd51ba70" x="929.81851" y="239.598979" style="stroke: #000000; stroke-width: 0.8"/>
      </g>
     </g>
     <g id="text_36">
      <text style="font-size: 10px; font-family: 'DejaVu Sans', 'Bitstream Vera Sans', 'Computer Modern Sans Serif', 'Lucida Grande', 'Verdana', 'Geneva', 'Lucid', 'Arial', 'Helvetica', 'Avant Garde', sans-serif; text-anchor: middle" x="929.81851" y="254.196635" transform="rotate(-0 929.81851 254.196635)">6</text>
     </g>
    </g>
    <g id="text_37">
     <text style="font-size: 10px; font-family: 'DejaVu Sans', 'Bitstream Vera Sans', 'Computer Modern Sans Serif', 'Lucida Grande', 'Verdana', 'Geneva', 'Lucid', 'Arial', 'Helvetica', 'Avant Garde', sans-serif; text-anchor: middle" x="798.302757" y="268.197416" transform="rotate(-0 798.302757 268.197416)">a/h</text>
    </g>
   </g>
   <g id="matplotlib.axis_6">
    <g id="ytick_15">
     <g id="line2d_53">
      <path d="M 666.787003 218.967893
L 929.81851 218.967893
" clip-path="url(#p584ba20cab)" style="fill: none; stroke: #b0b0b0; stroke-opacity: 0.2; stroke-width: 0.8; stroke-linecap: square"/>
     </g>
     <g id="line2d_54">
      <g>
       <use xlink:href="#md74424f9e9" x="666.787003" y="218.967893" style="stroke: #000000; stroke-width: 0.8"/>
      </g>
     </g>
     <g id="text_38">
      <text style="font-size: 10px; font-family: 'DejaVu Sans', 'Bitstream Vera Sans', 'Computer Modern Sans Serif', 'Lucida Grande', 'Verdana', 'Geneva', 'Lucid', 'Arial', 'Helvetica', 'Avant Garde', sans-serif; text-anchor: end" x="659.787003" y="222.766721" transform="rotate(-0 659.787003 222.766721)">0</text>
     </g>
    </g>
    <g id="ytick_16">
     <g id="line2d_55">
      <path d="M 666.787003 189.42612
L 929.81851 189.42612
" clip-path="url(#p584ba20cab)" style="fill: none; stroke: #b0b0b0; stroke-opacity: 0.2; stroke-width: 0.8; stroke-linecap: square"/>
     </g>
     <g id="line2d_56">
      <g>
       <use xlink:href="#md74424f9e9" x="666.787003" y="189.42612" style="stroke: #000000; stroke-width: 0.8"/>
      </g>
     </g>
     <g id="text_39">
      <text style="font-size: 10px; font-family: 'DejaVu Sans', 'Bitstream Vera Sans', 'Computer Modern Sans Serif', 'Lucida Grande', 'Verdana', 'Geneva', 'Lucid', 'Arial', 'Helvetica', 'Avant Garde', sans-serif; text-anchor: end" x="659.787003" y="193.224949" transform="rotate(-0 659.787003 193.224949)">2</text>
     </g>
    </g>
    <g id="ytick_17">
     <g id="line2d_57">
      <path d="M 666.787003 159.884348
L 929.81851 159.884348
" clip-path="url(#p584ba20cab)" style="fill: none; stroke: #b0b0b0; stroke-opacity: 0.2; stroke-width: 0.8; stroke-linecap: square"/>
     </g>
     <g id="line2d_58">
      <g>
       <use xlink:href="#md74424f9e9" x="666.787003" y="159.884348" style="stroke: #000000; stroke-width: 0.8"/>
      </g>
     </g>
     <g id="text_40">
      <text style="font-size: 10px; font-family: 'DejaVu Sans', 'Bitstream Vera Sans', 'Computer Modern Sans Serif', 'Lucida Grande', 'Verdana', 'Geneva', 'Lucid', 'Arial', 'Helvetica', 'Avant Garde', sans-serif; text-anchor: end" x="659.787003" y="163.683176" transform="rotate(-0 659.787003 163.683176)">4</text>
     </g>
    </g>
    <g id="ytick_18">
     <g id="line2d_59">
      <path d="M 666.787003 130.342576
L 929.81851 130.342576
" clip-path="url(#p584ba20cab)" style="fill: none; stroke: #b0b0b0; stroke-opacity: 0.2; stroke-width: 0.8; stroke-linecap: square"/>
     </g>
     <g id="line2d_60">
      <g>
       <use xlink:href="#md74424f9e9" x="666.787003" y="130.342576" style="stroke: #000000; stroke-width: 0.8"/>
      </g>
     </g>
     <g id="text_41">
      <text style="font-size: 10px; font-family: 'DejaVu Sans', 'Bitstream Vera Sans', 'Computer Modern Sans Serif', 'Lucida Grande', 'Verdana', 'Geneva', 'Lucid', 'Arial', 'Helvetica', 'Avant Garde', sans-serif; text-anchor: end" x="659.787003" y="134.141404" transform="rotate(-0 659.787003 134.141404)">6</text>
     </g>
    </g>
    <g id="ytick_19">
     <g id="line2d_61">
      <path d="M 666.787003 100.800804
L 929.81851 100.800804
" clip-path="url(#p584ba20cab)" style="fill: none; stroke: #b0b0b0; stroke-opacity: 0.2; stroke-width: 0.8; stroke-linecap: square"/>
     </g>
     <g id="line2d_62">
      <g>
       <use xlink:href="#md74424f9e9" x="666.787003" y="100.800804" style="stroke: #000000; stroke-width: 0.8"/>
      </g>
     </g>
     <g id="text_42">
      <text style="font-size: 10px; font-family: 'DejaVu Sans', 'Bitstream Vera Sans', 'Computer Modern Sans Serif', 'Lucida Grande', 'Verdana', 'Geneva', 'Lucid', 'Arial', 'Helvetica', 'Avant Garde', sans-serif; text-anchor: end" x="659.787003" y="104.599632" transform="rotate(-0 659.787003 104.599632)">8</text>
     </g>
    </g>
    <g id="ytick_20">
     <g id="line2d_63">
      <path d="M 666.787003 71.259031
L 929.81851 71.259031
" clip-path="url(#p584ba20cab)" style="fill: none; stroke: #b0b0b0; stroke-opacity: 0.2; stroke-width: 0.8; stroke-linecap: square"/>
     </g>
     <g id="line2d_64">
      <g>
       <use xlink:href="#md74424f9e9" x="666.787003" y="71.259031" style="stroke: #000000; stroke-width: 0.8"/>
      </g>
     </g>
     <g id="text_43">
      <text style="font-size: 10px; font-family: 'DejaVu Sans', 'Bitstream Vera Sans', 'Computer Modern Sans Serif', 'Lucida Grande', 'Verdana', 'Geneva', 'Lucid', 'Arial', 'Helvetica', 'Avant Garde', sans-serif; text-anchor: end" x="659.787003" y="75.057859" transform="rotate(-0 659.787003 75.057859)">10</text>
     </g>
    </g>
    <g id="ytick_21">
     <g id="line2d_65">
      <path d="M 666.787003 41.717259
L 929.81851 41.717259
" clip-path="url(#p584ba20cab)" style="fill: none; stroke: #b0b0b0; stroke-opacity: 0.2; stroke-width: 0.8; stroke-linecap: square"/>
     </g>
     <g id="line2d_66">
      <g>
       <use xlink:href="#md74424f9e9" x="666.787003" y="41.717259" style="stroke: #000000; stroke-width: 0.8"/>
      </g>
     </g>
     <g id="text_44">
      <text style="font-size: 10px; font-family: 'DejaVu Sans', 'Bitstream Vera Sans', 'Computer Modern Sans Serif', 'Lucida Grande', 'Verdana', 'Geneva', 'Lucid', 'Arial', 'Helvetica', 'Avant Garde', sans-serif; text-anchor: end" x="659.787003" y="45.516087" transform="rotate(-0 659.787003 45.516087)">12</text>
     </g>
    </g>
    <g id="text_45">
     <text style="font-size: 10px; font-family: 'DejaVu Sans', 'Bitstream Vera Sans', 'Computer Modern Sans Serif', 'Lucida Grande', 'Verdana', 'Geneva', 'Lucid', 'Arial', 'Helvetica', 'Avant Garde', sans-serif; text-anchor: middle" x="640.65966" y="128.858672" transform="rotate(-90 640.65966 128.858672)">normal traction [GPa]</text>
    </g>
   </g>
   <g id="line2d_67">
    <path d="M 666.787529 218.946137
L 667.956547 176.390199
L 668.83331 151.223063
L 669.710072 130.918039
L 670.586835 114.760031
L 671.463598 102.127013
L 672.340361 92.478589
L 673.217124 85.345948
L 674.093887 80.323055
L 674.678396 77.971155
L 675.262904 76.308095
L 675.847413 75.250755
L 676.431922 74.723985
L 677.01643 74.659937
L 677.600939 74.997441
L 678.185447 75.681432
L 679.06221 77.250255
L 679.938973 79.342601
L 681.10799 82.736409
L 682.861516 88.656154
L 691.044637 117.568677
L 693.382671 124.526264
L 695.720706 130.754642
L 698.05874 136.336633
L 700.689029 141.982885
L 703.611572 147.660688
L 706.826369 153.40596
L 710.91793 160.249844
L 716.178507 168.602858
L 721.532924 176.711711
L 725.943581 183.031718
L 730.535454 189.152613
L 735.315989 194.914625
L 737.779414 197.612317
L 740.292935 200.164973
L 742.857572 202.558542
L 745.474364 204.781934
L 748.144371 206.827255
L 750.868676 208.689904
L 753.648383 210.368517
L 756.484618 211.864811
L 759.378531 213.18331
L 762.331296 214.331016
L 765.344108 215.317011
L 768.418189 216.152043
L 771.554785 216.848096
L 774.755168 217.417968
L 781.352507 218.232136
L 788.220903 218.699325
L 795.371493 218.916621
L 806.651984 218.952219
L 879.799189 218.431701
L 937 218.591988
L 937 218.591988
" clip-path="url(#p584ba20cab)" style="fill: none; stroke: #1f77b4; stroke-width: 1.5; stroke-linecap: square"/>
   </g>
   <g id="line2d_68">
    <path d="M 666.787529 218.946504
L 667.664292 187.094716
L 668.541055 161.895013
L 669.417818 142.120001
L 670.294581 126.74661
L 671.171344 114.925594
L 672.048107 105.955141
L 672.92487 99.258096
L 673.801633 94.362358
L 674.678396 90.884047
L 675.555159 88.513082
L 676.139667 87.422663
L 676.724176 86.652175
L 677.308684 86.149766
L 677.893193 85.871343
L 678.477702 85.779608
L 679.354465 85.924855
L 680.231228 86.335957
L 681.400245 87.190098
L 682.861516 88.608629
L 684.615042 90.672063
L 686.660822 93.461819
L 688.706602 96.630626
L 690.752383 100.196491
L 692.798163 104.187654
L 695.136197 109.287561
L 697.474232 114.945842
L 700.10452 121.906831
L 703.319318 131.081419
L 708.579895 146.903105
L 713.840473 162.514688
L 717.347525 172.222256
L 719.393305 177.504684
L 721.532924 182.683503
L 723.716054 187.576874
L 725.943581 192.146617
L 728.216408 196.362729
L 730.535454 200.203664
L 732.901662 203.656308
L 735.315989 206.715698
L 737.779414 209.384501
L 740.292935 211.672315
L 742.857572 213.59481
L 745.474364 215.172785
L 748.144371 216.431156
L 750.868676 217.397935
L 753.648383 218.103231
L 756.484618 218.578299
L 759.378531 218.854667
L 762.331296 218.963372
L 768.418189 218.795579
L 774.755168 218.291038
L 795.371493 216.322799
L 802.815871 215.82908
L 810.566108 215.484198
L 818.63477 215.289944
L 831.363575 215.24889
L 844.884843 215.437112
L 874.505191 216.165784
L 913.902226 217.081783
L 937 217.478253
L 937 217.478253
" clip-path="url(#p584ba20cab)" style="fill: none; stroke: #ff7f0e; stroke-width: 1.5; stroke-linecap: square"/>
   </g>
   <g id="line2d_69">
    <path d="M 666.787003 218.97192
L 669.443887 134.278376
L 672.100771 69.447788
L 674.757655 32.908861
L 677.414539 28.185666
L 680.071423 38.157413
L 682.728307 55.682777
L 685.385191 80.174958
L 688.042075 108.917042
L 690.698958 131.631013
L 693.355842 146.168317
L 696.012726 156.633373
L 698.66961 159.386828
L 701.326494 159.393902
L 703.983378 156.166307
L 706.640262 151.278765
L 709.297146 147.464199
L 711.95403 145.617179
L 714.610914 145.019346
L 717.267798 148.66463
L 719.924681 156.090197
L 722.581565 164.680648
L 725.238449 173.40009
L 727.895333 183.372701
L 730.552217 195.876792
L 733.209101 209.524219
L 735.865985 221.511337
L 738.522869 229.531678
L 741.179753 229.106397
L 743.836637 222.162003
L 746.493521 218.398703
L 749.150404 218.736397
L 751.807288 218.967893
L 754.464172 218.967893
L 757.121056 218.967893
L 759.77794 218.967893
L 762.434824 218.967893
L 765.091708 218.967893
L 767.748592 218.967893
L 770.405476 218.967893
L 773.06236 218.967893
L 775.719243 218.967893
L 778.376127 218.967893
L 781.033011 218.967893
L 783.689895 218.967893
L 786.346779 218.967893
L 789.003663 218.967893
L 791.660547 218.967893
L 794.317431 218.967893
L 796.974315 218.967893
L 799.631199 218.967893
L 802.288083 218.967893
L 804.944966 218.967893
L 807.60185 218.967893
L 810.258734 218.967893
L 812.915618 218.967893
L 815.572502 218.967893
L 818.229386 218.967893
L 820.88627 218.967893
L 823.543154 218.967893
L 826.200038 218.967893
L 828.856922 218.967893
L 831.513805 218.967893
L 834.170689 218.967893
L 836.827573 218.967893
L 839.484457 218.967893
L 842.141341 218.967893
L 844.798225 218.967893
L 847.455109 218.967893
L 850.111993 218.967893
L 852.768877 218.967893
L 855.425761 218.967893
L 858.082645 218.967893
L 860.739528 218.967893
L 863.396412 218.967893
L 866.053296 218.967893
L 868.71018 218.967893
L 871.367064 218.967893
L 874.023948 218.967893
L 876.680832 218.967893
L 879.337716 218.967893
L 881.9946 218.967893
L 884.651484 218.967893
L 887.308368 218.967893
L 889.965251 218.967893
L 892.622135 218.967893
L 895.279019 218.967893
L 897.935903 218.967893
L 900.592787 218.967893
L 903.249671 218.967893
L 905.906555 218.967893
L 908.563439 218.967893
L 911.220323 218.967893
L 913.877207 218.967893
L 916.53409 218.967893
L 919.190974 218.967893
L 921.847858 218.967893
L 924.504742 218.967893
L 927.161626 218.967893
L 929.81851 218.967893
" clip-path="url(#p584ba20cab)" style="fill: none; stroke-dasharray: 5.55,2.4; stroke-dashoffset: 0; stroke: #2ca02c; stroke-width: 1.5"/>
   </g>
   <g id="patch_39">
    <path d="M 666.787003 239.598979
L 666.787003 18.118365
" style="fill: none; stroke: #000000; stroke-width: 0.8; stroke-linejoin: miter; stroke-linecap: square"/>
   </g>
   <g id="patch_40">
    <path d="M 929.81851 239.598979
L 929.81851 18.118365
" style="fill: none; stroke: #000000; stroke-width: 0.8; stroke-linejoin: miter; stroke-linecap: square"/>
   </g>
   <g id="patch_41">
    <path d="M 666.787003 239.598979
L 929.81851 239.598979
" style="fill: none; stroke: #000000; stroke-width: 0.8; stroke-linejoin: miter; stroke-linecap: square"/>
   </g>
   <g id="patch_42">
    <path d="M 666.787003 18.118365
L 929.81851 18.118365
" style="fill: none; stroke: #000000; stroke-width: 0.8; stroke-linejoin: miter; stroke-linecap: square"/>
   </g>
   <g id="text_46">
    <text style="font-size: 12px; font-family: 'DejaVu Sans', 'Bitstream Vera Sans', 'Computer Modern Sans Serif', 'Lucida Grande', 'Verdana', 'Geneva', 'Lucid', 'Arial', 'Helvetica', 'Avant Garde', sans-serif; text-anchor: middle" x="798.302757" y="12.118365" transform="rotate(-0 798.302757 12.118365)">Cleavage curve, not specimen strength</text>
   </g>
   <g id="legend_3">
    <g id="patch_43">
     <path d="M 856.960541 55.220006
L 924.91851 55.220006
Q 926.31851 55.220006 926.31851 53.820006
L 926.31851 23.018365
Q 926.31851 21.618365 924.91851 21.618365
L 856.960541 21.618365
Q 855.560541 21.618365 855.560541 23.018365
L 855.560541 53.820006
Q 855.560541 55.220006 856.960541 55.220006
z
" style="fill: #ffffff; opacity: 0.8; stroke: #cccccc; stroke-linejoin: miter"/>
    </g>
    <g id="line2d_70">
     <path d="M 858.360541 27.287271
L 865.360541 27.287271
L 872.360541 27.287271
" style="fill: none; stroke: #1f77b4; stroke-width: 1.5; stroke-linecap: square"/>
    </g>
    <g id="text_47">
     <text style="font-size: 7px; font-family: 'DejaVu Sans', 'Bitstream Vera Sans', 'Computer Modern Sans Serif', 'Lucida Grande', 'Verdana', 'Geneva', 'Lucid', 'Arial', 'Helvetica', 'Avant Garde', sans-serif; text-anchor: start" x="877.960541" y="29.737271" transform="rotate(-0 877.960541 29.737271)">previous</text>
    </g>
    <g id="line2d_71">
     <path d="M 858.360541 37.787818
L 865.360541 37.787818
L 872.360541 37.787818
" style="fill: none; stroke: #ff7f0e; stroke-width: 1.5; stroke-linecap: square"/>
    </g>
    <g id="text_48">
     <text style="font-size: 7px; font-family: 'DejaVu Sans', 'Bitstream Vera Sans', 'Computer Modern Sans Serif', 'Lucida Grande', 'Verdana', 'Geneva', 'Lucid', 'Arial', 'Helvetica', 'Avant Garde', sans-serif; text-anchor: start" x="877.960541" y="40.237818" transform="rotate(-0 877.960541 40.237818)">v10 research</text>
    </g>
    <g id="line2d_72">
     <path d="M 858.360541 48.288365
L 865.360541 48.288365
L 872.360541 48.288365
" style="fill: none; stroke-dasharray: 5.55,2.4; stroke-dashoffset: 0; stroke: #2ca02c; stroke-width: 1.5"/>
    </g>
    <g id="text_49">
     <text style="font-size: 7px; font-family: 'DejaVu Sans', 'Bitstream Vera Sans', 'Computer Modern Sans Serif', 'Lucida Grande', 'Verdana', 'Geneva', 'Lucid', 'Arial', 'Helvetica', 'Avant Garde', sans-serif; text-anchor: start" x="877.960541" y="50.738365" transform="rotate(-0 877.960541 50.738365)">0 K source</text>
    </g>
   </g>
  </g>
 </g>
 <defs>
  <clipPath id="p841b5dffa1">
   <rect x="43.08774" y="18.118365" width="263.031507" height="221.480614"/>
  </clipPath>
  <clipPath id="pc8383e06cf">
   <rect x="363.789715" y="18.118365" width="263.031507" height="221.480614"/>
  </clipPath>
  <clipPath id="p584ba20cab">
   <rect x="666.787003" y="18.118365" width="263.031507" height="221.480614"/>
  </clipPath>
 </defs>
</svg>
